<?xml version="1.0" encoding="UTF-8" ?>
<!DOCTYPE svg PUBLIC "-//W3C//DTD SVG 1.1//EN" "http://www.w3.org/Graphics/SVG/1.1/DTD/svg11.dtd">
<svg width="1213pt" height="378pt" viewBox="0 0 1213 378" version="1.1" xmlns="http://www.w3.org/2000/svg">
<g id="#dddddd">
<path fill="#dddddd" opacity="1.00" d=" M 20.37 1.57 C 26.98 0.06 34.32 0.24 40.41 3.51 C 47.29 7.18 52.70 13.75 54.45 21.40 C 56.14 29.85 54.62 39.27 48.79 45.87 C 39.41 57.80 19.61 58.55 9.00 47.88 C -1.42 38.37 -2.25 20.46 7.08 9.94 C 10.57 5.94 15.20 2.87 20.37 1.57 Z" />
<path fill="#dddddd" opacity="1.00" d=" M 191.10 3.57 C 203.29 8.64 215.42 13.84 227.58 18.99 C 219.56 37.61 211.64 56.27 203.69 74.93 C 222.87 84.14 238.70 100.08 247.58 119.43 C 256.10 137.42 257.55 158.28 253.34 177.59 C 249.67 194.49 240.12 209.69 227.65 221.51 C 242.12 234.95 252.11 253.28 254.67 272.93 C 257.01 291.72 255.13 311.52 246.48 328.58 C 238.69 344.27 225.49 356.80 210.38 365.41 C 196.65 373.23 180.84 377.64 165.00 377.26 C 146.96 377.63 128.60 372.71 113.82 362.20 C 102.47 354.29 93.45 343.44 86.45 331.60 C 72.42 308.14 70.57 278.04 81.17 252.90 C 95.38 258.58 109.56 264.32 123.80 269.92 C 118.46 282.75 119.34 298.25 126.88 310.04 C 131.84 317.65 138.95 323.94 147.25 327.70 C 160.62 333.49 177.06 332.49 189.20 324.21 C 199.45 317.30 207.32 306.36 209.09 293.97 C 210.25 284.52 209.42 274.53 205.01 265.97 C 200.28 256.62 191.60 249.69 181.99 245.84 C 167.80 247.69 153.12 247.76 139.26 243.77 C 119.93 238.49 103.09 225.84 91.25 209.83 C 79.77 194.46 73.99 175.12 74.49 156.00 C 74.08 136.51 80.60 116.98 92.68 101.68 C 103.22 88.24 117.21 77.24 133.37 71.43 C 143.39 67.81 154.07 66.03 164.72 66.20 C 173.44 45.29 182.33 24.45 191.10 3.57 M 156.53 112.77 C 143.86 114.97 132.82 123.40 126.21 134.27 C 120.73 143.42 119.36 154.59 121.16 164.99 C 123.58 178.33 132.83 189.98 144.73 196.26 C 153.46 200.96 163.80 201.96 173.49 200.39 C 187.20 198.05 199.03 188.37 205.22 176.07 C 209.37 167.75 210.31 158.13 209.05 149.00 C 206.99 135.93 198.28 124.52 187.07 117.80 C 177.97 112.41 166.87 110.84 156.53 112.77 Z" />
<path fill="#dddddd" opacity="1.00" d=" M 936.32 66.37 C 952.08 65.37 968.25 67.52 982.58 74.43 C 999.17 82.40 1013.20 95.56 1022.55 111.39 C 1033.21 129.51 1036.26 151.44 1033.01 172.04 C 1028.92 199.60 1010.24 223.82 986.03 237.02 C 968.40 246.61 947.53 248.85 927.89 245.89 C 890.75 240.25 859.26 208.41 854.16 171.16 C 852.12 155.85 852.99 139.91 858.32 125.31 C 864.61 107.78 876.96 92.79 892.03 82.02 C 904.96 72.80 920.50 67.44 936.32 66.37 M 937.39 112.56 C 916.06 115.18 898.21 135.31 899.21 156.97 C 898.55 180.33 919.65 201.69 943.02 201.28 C 957.70 202.05 972.04 194.30 980.32 182.32 C 987.57 172.53 989.68 159.66 987.55 147.82 C 984.94 134.39 975.39 122.84 963.36 116.62 C 955.42 112.48 946.19 111.52 937.39 112.56 Z" />
<path fill="#dddddd" opacity="1.00" d=" M 1044.61 66.50 C 1062.70 66.45 1080.79 66.58 1098.88 66.44 C 1109.29 90.26 1119.29 114.26 1129.61 138.13 C 1139.76 114.24 1149.99 90.37 1160.17 66.49 C 1177.74 66.52 1195.31 66.47 1212.88 66.52 C 1185.07 125.09 1157.22 183.64 1129.33 242.17 C 1110.85 204.70 1093.02 166.89 1074.79 129.29 C 1064.74 108.36 1054.59 87.47 1044.61 66.50 Z" />
<path fill="#dddddd" opacity="1.00" d=" M 5.00 66.51 C 20.27 66.55 35.54 66.38 50.81 66.59 C 50.68 125.05 50.78 183.52 50.76 241.99 C 35.51 242.01 20.25 242.00 5.00 242.00 C 5.00 183.50 5.00 125.00 5.00 66.51 Z" />
<path fill="#dddddd" opacity="1.00" d=" M 299.19 99.08 C 321.49 71.86 360.49 59.98 394.25 69.78 C 418.12 76.66 438.88 93.90 449.78 116.25 C 453.18 122.92 455.35 130.11 457.99 137.09 C 470.64 172.06 483.34 207.02 495.99 241.99 C 479.66 242.01 463.33 242.00 447.00 242.00 C 443.83 233.35 440.73 224.68 437.57 216.03 C 426.23 229.38 411.19 239.84 394.15 244.36 C 379.81 248.21 364.54 248.56 349.97 245.81 C 325.70 240.88 303.76 225.30 291.20 203.94 C 282.96 189.78 278.05 173.45 278.49 156.98 C 278.00 135.99 285.75 115.14 299.19 99.08 M 360.20 113.33 C 337.87 116.63 322.04 140.00 324.60 161.94 C 326.07 184.76 348.58 202.97 371.02 201.51 C 385.00 201.32 398.12 193.38 405.97 182.02 C 413.56 171.43 415.21 157.40 412.06 144.95 C 408.94 132.52 399.52 122.27 388.09 116.82 C 379.45 112.71 369.57 111.89 360.20 113.33 Z" />
<path fill="#dddddd" opacity="1.00" d=" M 581.01 71.03 C 594.50 66.43 609.03 65.59 623.13 67.11 C 642.77 69.41 661.28 78.94 675.00 93.11 C 688.72 78.94 707.24 69.40 726.88 67.11 C 741.20 65.56 755.98 66.47 769.66 71.26 C 786.87 77.21 801.75 88.93 812.68 103.38 C 824.03 118.35 830.11 137.18 829.76 155.95 C 829.74 184.63 829.75 213.31 829.76 241.99 C 814.51 242.02 799.26 241.99 784.01 242.00 C 783.99 214.66 784.01 187.32 783.99 159.98 C 783.83 155.66 783.84 151.28 782.88 147.05 C 779.38 130.22 765.03 116.19 748.11 113.14 C 741.12 112.02 733.85 112.17 726.98 113.94 C 716.22 116.70 706.94 124.29 701.58 133.94 C 701.41 169.94 701.53 205.96 701.52 241.97 C 686.26 242.04 671.01 241.98 655.76 242.00 C 655.64 213.27 655.95 184.54 655.60 155.82 C 655.67 132.55 634.28 111.67 611.00 112.47 C 590.05 111.70 570.19 128.20 566.77 148.81 C 565.87 154.81 566.00 160.91 566.00 166.97 C 565.99 191.98 566.01 216.99 566.00 242.00 C 550.74 241.99 535.49 242.01 520.24 241.99 C 520.25 213.33 520.26 184.66 520.24 156.00 C 519.90 137.65 525.65 119.23 536.53 104.44 C 547.66 89.32 563.09 77.04 581.01 71.03 Z" />
</g>
</svg>
